<?xml version="1.0" encoding="UTF-8"?>
<!DOCTYPE svg PUBLIC "-//W3C//DTD SVG 1.1//EN" "http://www.w3.org/Graphics/SVG/1.1/DTD/svg11.dtd">
<!-- Creator: CorelDRAW X7 -->
<svg xmlns="http://www.w3.org/2000/svg" xml:space="preserve" width="256px" height="256px" version="1.1" style="shape-rendering:geometricPrecision; text-rendering:geometricPrecision; image-rendering:optimizeQuality; fill-rule:evenodd; clip-rule:evenodd"
viewBox="0 0 256 256"
 xmlns:xlink="http://www.w3.org/1999/xlink">
 <defs>
  <style type="text/css">
   <![CDATA[
    .fil0 {fill:#F7F7F6}
    .fil1 {fill:#2D2E2D}
   ]]>
  </style>
 </defs>
 <g id="Vrstva_x0020_1">
  <metadata id="CorelCorpID_0Corel-Layer"/>
  <polygon class="fil0" points="0,256 256,256 256,0 0,0 "/>
  <polygon class="fil1" points="0,256 256,256 256,216 0,216 "/>
  <path class="fil0" d="M27 228l6 0c3,0 5,2 5,5l0 0c0,3 -2,5 -5,5l-3 0 0 4 -3 0 0 -14zm6 7c1,0 2,-1 2,-2l0 0c0,-1 -1,-2 -2,-2l-3 0 0 4 3 0z"/>
  <path class="fil0" d="M45 228l6 0c2,0 3,1 4,2 1,0 1,1 1,3l0 0c0,2 -1,4 -3,4l4 5 -4 0 -3 -4 -2 0 0 4 -3 0 0 -14zm6 7c1,0 2,-1 2,-2l0 0c0,-1 -1,-2 -2,-2l-3 0 0 4 3 0z"/>
  <path class="fil0" d="M62 235l0 0c0,-4 4,-7 8,-7 4,0 7,3 7,7l0 0c0,4 -3,8 -7,8 -4,0 -8,-4 -8,-8zm12 0l0 0c0,-2 -2,-4 -4,-4 -3,0 -4,2 -4,4l0 0c0,3 1,5 4,5 2,0 4,-2 4,-5z"/>
  <polygon class="fil0" points="84,228 95,228 95,231 87,231 87,234 94,234 94,237 87,237 87,242 84,242 "/>
  <polygon class="fil0" points="101,228 112,228 112,231 104,231 104,234 111,234 111,237 104,237 104,240 112,240 112,242 101,242 "/>
  <path class="fil0" d="M117 240l2 -2c2,1 3,2 5,2 1,0 2,-1 2,-2l0 0c0,0 -1,-1 -3,-1 -3,-1 -5,-2 -5,-5l0 0c0,-2 2,-4 5,-4 2,0 4,1 5,2l-1 2c-2,-1 -3,-1 -4,-1 -1,0 -2,0 -2,1l0 0c0,1 1,1 3,2 3,1 5,2 5,4l0 0c0,3 -2,5 -6,5 -2,0 -4,-1 -6,-3z"/>
  <path class="fil0" d="M134 240l2 -2c1,1 2,2 4,2 1,0 2,-1 2,-2l0 0c0,0 0,-1 -3,-1 -3,-1 -4,-2 -4,-5l0 0c0,-2 2,-4 5,-4 2,0 3,1 5,2l-2 2c-1,-1 -2,-1 -4,-1 -1,0 -1,0 -1,1l0 0c0,1 0,1 3,2 3,1 4,2 4,4l0 0c0,3 -2,5 -5,5 -2,0 -4,-1 -6,-3z"/>
  <polygon class="fil0" points="152,242 155,242 155,228 152,228 "/>
  <path class="fil0" d="M161 235l0 0c0,-4 3,-7 8,-7 4,0 7,3 7,7l0 0c0,4 -3,8 -7,8 -5,0 -8,-4 -8,-8zm12 0l0 0c0,-2 -2,-4 -4,-4 -3,0 -4,2 -4,4l0 0c0,3 1,5 4,5 2,0 4,-2 4,-5z"/>
  <polygon class="fil0" points="182,228 185,228 192,237 192,228 195,228 195,242 192,242 186,233 186,242 182,242 "/>
  <path class="fil0" d="M207 228l3 0 6 14 -4 0 -1 -3 -6 0 -1 3 -3 0 6 -14zm3 8l-2 -4 -2 4 4 0z"/>
  <polygon class="fil0" points="222,228 225,228 225,239 232,239 232,242 222,242 "/>
  <path class="fil1" d="M146 95c-2,0 -4,1 -5,3 -1,1 -4,6 -5,8 -1,1 0,3 2,3l16 0c0,0 -2,4 -3,5 0,1 -1,1 -2,1l-2 0c-1,0 -1,-1 -1,-1 0,-1 1,-2 1,-2l-15 0c0,0 -1,2 -2,4 -1,2 0,3 2,3l27 0c2,0 4,-1 5,-2 1,-2 4,-7 5,-8 1,-2 0,-4 -2,-4l-16 0c0,0 3,-5 3,-5 0,-1 1,-1 2,-1l2 0c1,0 2,1 1,1 0,1 -1,2 -1,2l15 0c0,0 1,-2 2,-4 1,-1 0,-3 -2,-3l-27 0z"/>
  <path class="fil1" d="M134 95l-27 0c-2,0 -4,1 -5,3 -1,1 -10,16 -11,18 -1,2 1,3 2,3l27 0c3,0 5,-1 6,-2 1,-2 9,-17 10,-19 1,-1 0,-3 -2,-3zm-14 5c0,1 -7,13 -8,14 0,1 -1,1 -2,1l-2 0c-1,0 -1,-1 -1,-1 0,-1 8,-13 8,-14 0,-1 1,-1 2,-1l3 0c0,0 1,1 0,1z"/>
  <path class="fil1" d="M95 95l-30 0 -12 20 -28 0 0 5c0,0 55,-1 57,-1 2,0 4,-1 5,-2 1,-2 3,-5 3,-7 1,-1 0,-2 -1,-3 2,0 4,-1 5,-3 1,-2 2,-4 3,-6 1,-1 0,-3 -2,-3zm-16 16c0,0 -2,2 -2,3 -1,1 -1,1 -2,1 -1,0 -8,0 -8,0l4 -6 7 0c1,0 1,1 1,2zm6 -11c0,1 -2,3 -2,4 -1,1 -1,1 -2,1l-8 0 4 -6 7 0c1,0 1,1 1,1z"/>
  <polygon class="fil1" points="181,95 167,119 202,119 204,115 184,115 187,109 208,109 210,105 190,105 193,99 231,99 231,95 "/>
 </g>
</svg>
