<?xml version="1.0" encoding="UTF-8" standalone="no"?>
<svg width="48px" height="48px" viewBox="0 0 48 48" version="1.1" xmlns="http://www.w3.org/2000/svg" xmlns:xlink="http://www.w3.org/1999/xlink">
    <!-- Generator: Sketch 41.2 (35397) - http://www.bohemiancoding.com/sketch -->
    <title>icon-height-standing</title>
    <desc>Created with Sketch.</desc>
    <defs></defs>
    <g id="Symbols" stroke="none" stroke-width="1" fill="none" fill-rule="evenodd">
        <g id="icon-height-standing">
            <g>
                <rect id="Button-Background" x="0" y="0" width="48" height="48"></rect>
                <g id="icon" transform="translate(12.000000, 0.000000)" fill="#7F7F7F">
                    <ellipse id="Oval" cx="11.4285714" cy="4.96857143" rx="4.79942857" ry="4.79942857"></ellipse>
                    <path d="M22.4314286,26.4834286 C22.2617143,25.4142857 20.7611429,15.9942857 20.4097143,14.4148571 C19.5377143,10.4925714 16.0588571,10.4925714 14.1897143,10.4925714 L8.66685714,10.4925714 C6.79771429,10.4925714 3.31828571,10.4925714 2.44685714,14.4148571 C2.09542857,15.9937143 0.594857143,25.4142857 0.425142857,26.4834286 C0.244571429,27.6211429 1.02,28.6902857 2.15828571,28.8714286 C3.29885714,29.0542857 4.36571429,28.2765714 4.54628571,27.1388571 C4.94,24.6605714 5.92114286,18.5714286 6.35771429,16.1622857 L6.35771429,45.3428571 C6.35771429,46.4954286 7.292,47.4291429 8.444,47.4291429 C9.596,47.4291429 10.5302857,46.4948571 10.5302857,45.3428571 L10.5302857,30.7325714 L12.3251429,30.7325714 L12.3251429,45.3422857 C12.3251429,46.4948571 13.2594286,47.4285714 14.4114286,47.4285714 C15.5634286,47.4285714 16.4977143,46.4942857 16.4977143,45.3422857 L16.4977143,16.1622857 C16.9342857,18.572 17.9154286,24.6605714 18.3091429,27.1382857 C18.4725714,28.1657143 19.3588571,28.8971429 20.3674286,28.8971429 C20.476,28.8971429 20.5868571,28.8885714 20.6977143,28.8708571 C21.8365714,28.6902857 22.6125714,27.6211429 22.4314286,26.4834286 Z" id="Shape"></path>
                </g>
            </g>
        </g>
    </g>
</svg>