<?xml version="1.0" encoding="UTF-8"?>
<svg width="29px" height="32px" viewBox="0 0 29 32" version="1.1" xmlns="http://www.w3.org/2000/svg" xmlns:xlink="http://www.w3.org/1999/xlink">
    <!-- Generator: Sketch 51.2 (57519) - http://www.bohemiancoding.com/sketch -->
    <title>Fill 1</title>
    <desc>Created with Sketch.</desc>
    <defs></defs>
    <g id="Showmatch-Landing-Page-Modules" stroke="none" stroke-width="1" fill="none" fill-rule="evenodd">
        <g id="Venues-and-Events---Default-Splash-Image" transform="translate(-706.000000, -535.000000)" fill="#ffffff">
            <path d="M712.54,553.13 C712.55932,552.30857 712.22317,551.51878 711.617806,550.96322 C711.012438,550.40766 710.196754,550.1404 709.38,550.23 L706,550.23 L706,558.63 L707.82,558.63 L707.82,556.08 L709.2,556.08 C711.05,556.08 712.54,555.07 712.54,553.13 Z M707.82,551.87 L709.22,551.87 C710.13,551.87 710.69,552.31 710.69,553.14 C710.686807,553.50629 710.528043,553.85395 710.253319,554.09624 C709.978594,554.33854 709.613818,554.45261 709.25,554.41 L707.82,554.41 L707.82,551.87 Z M721.62,554.4 C721.62745,553.25301 721.15985,552.15409 720.32822,551.36413 C719.49658,550.57417 718.37509,550.16364 717.23,550.23 L714.02,550.23 L714.02,558.63 L717.24,558.63 C718.39237,558.68825 719.51736,558.26642 720.34734,557.46487 C721.17731,556.66331 721.63808,555.5537 721.62,554.4 Z M719.72,554.4 C719.76081,555.07385 719.51231,555.73313 719.03687,556.21239 C718.56142,556.69166 717.90416,556.94542 717.23,556.91 L715.82,556.91 L715.82,551.87 L717.22,551.87 C717.89607,551.84049 718.55296,552.09896 719.02764,552.58126 C719.50231,553.06357 719.75028,553.72449 719.71,554.4 L719.72,554.4 Z M724.59,551.86 L724.59,553.65 L728.43,553.65 L728.43,555.33 L724.59,555.33 L724.59,558.6 L722.82,558.6 L722.82,550.2 L728.96,550.2 L728.96,551.88 L724.59,551.86 Z M728.23,535 L708.82,535 L708.82,547 L710.82,547 L710.82,537 L725.82,537 L725.82,544 L732.82,544 L732.82,565 L710.82,565 L710.82,562 L708.82,562 L708.82,567 L734.82,567 L734.82,541.59 L728.23,535 Z M727.82,537.41 L732.41,542 L727.82,542 L727.82,537.41 Z" id="Fill-1"></path>
        </g>
    </g>
</svg>