<?xml version="1.0" encoding="UTF-8" standalone="no"?>
<svg width="48px" height="48px" viewBox="0 0 48 48" version="1.1" xmlns="http://www.w3.org/2000/svg" xmlns:xlink="http://www.w3.org/1999/xlink">
    <!-- Generator: Sketch 41.2 (35397) - http://www.bohemiancoding.com/sketch -->
    <title>icon-height-sitting</title>
    <desc>Created with Sketch.</desc>
    <defs></defs>
    <g id="Symbols" stroke="none" stroke-width="1" fill="none" fill-rule="evenodd">
        <g id="icon-height-sitting">
            <g>
                <rect id="Button-Background" x="0" y="0" width="48" height="48"></rect>
                <g id="icon" transform="translate(25.500000, 24.000000) scale(-1, 1) translate(-25.500000, -24.000000) translate(13.000000, 2.000000)" fill="#7F7F7F">
                    <path d="M16.7239744,38.838422 L16.7239744,31.7148933 L14.2237075,31.7148933 L14.2237075,38.838422 C14.6436742,38.5257294 15.0636409,38.3889263 15.4738409,38.3889263 C15.884041,38.3889263 16.3040077,38.5257294 16.7239744,38.838422 Z" id="Shape"></path>
                    <path d="M16.0232768,0 C14.662132,0 13.432182,0.549657636 12.5384182,1.44387677 C11.6446545,2.33809591 11.0952768,3.56867271 11.0952768,4.93051103 C11.0952768,6.29234935 11.6446545,7.52292615 12.5384182,8.41714529 C13.432182,9.31136443 14.662132,9.86102206 16.0232768,9.86102206 C17.3844215,9.86102206 18.6143715,9.31136443 19.5081353,8.41714529 C20.401899,7.52292615 20.9512767,6.29234935 20.9512767,4.93051103 C20.9512767,3.56867271 20.401899,2.33809591 19.5081353,1.44387677 C18.6143715,0.549657636 17.3844215,0 16.0232768,0 Z" id="Shape"></path>
                    <path d="M21.6366082,30.4836661 L7.92420689,30.4836661 C7.26007349,30.4836661 6.72290677,31.0211065 6.72290677,31.6855784 C6.72290677,32.3500502 7.26007349,32.8874906 7.92420689,32.8874906 L22.8379083,32.8874906 C23.5020417,32.8874906 24.0392084,32.3500502 24.0392084,31.6855784 L24.0392084,8.8199307 C24.0392084,8.15545889 23.5020417,7.61801846 22.8379083,7.61801846 C22.1737749,7.61801846 21.6366082,8.15545889 21.6366082,8.8199307 L21.6366082,30.4836661 Z" id="Shape"></path>
                    <path d="M20.1693272,15.9261252 C20.1748777,13.160301 17.9479455,10.9181575 15.1781672,10.9181575 L16.0588343,10.9181575 C13.2967422,10.9181575 11.0596244,13.1622716 11.0620835,15.9212797 L11.0700738,24.885618 L2.953973,24.885618 C2.18240627,24.885618 1.4792062,25.1983106 0.971339485,25.7064361 C0.463472771,26.2145616 0.150939408,26.91812 0.150939408,27.6900799 L0.184376112,40.4159944 C0.187999004,41.7948568 1.31166742,42.9126456 2.69396509,42.9126456 L2.41701013,42.9126456 C3.79939496,42.9126456 4.91644436,41.7927039 4.91204602,40.4224713 L4.8770066,29.5065017 L10.3854071,29.5065017 C13.2861074,29.5065017 14.3018408,29.5162733 15.1613076,29.5162733 C16.5384077,29.5162733 17.7885411,28.9592896 18.6870746,28.0505267 C19.585608,27.1515354 20.1520747,25.9007649 20.1520747,24.5229631 L20.1693272,15.9261252 Z" id="Shape"></path>
                    <path d="M23.0137083,41.6331122 C23.0137083,40.0794208 21.7733415,38.9849966 20.4841414,38.3596114 C18.9800746,37.6169664 17.1439411,37.3238171 15.4738409,37.3238171 C13.8135074,37.3238171 11.9676073,37.6267381 10.4635405,38.3596114 C9.17434034,38.9947683 7.93397355,40.0891924 7.93397355,41.6331122 L7.93397355,42.0337497 L10.3463404,42.0337497 L10.3463404,41.6331122 C10.3463404,41.1640733 11.1667405,40.6852627 11.5281072,40.5191448 C12.7001073,39.9426178 14.1846408,39.7374133 15.4836076,39.7374133 C16.7728077,39.7374133 18.2671079,39.9523894 19.439108,40.5191448 C19.790708,40.6950344 20.6208747,41.1640733 20.6208747,41.6331122 L20.6208747,42.0337497 L23.0332416,42.0337497 L23.0332416,41.6331122 L23.0137083,41.6331122 Z" id="Shape"></path>
                    <path d="M9.154807,40.734121 C8.28557359,40.734121 7.59214019,41.4376794 7.59214019,42.2975841 C7.59214019,43.1672604 8.29534025,43.8610471 9.154807,43.8610471 C10.0240404,43.8610471 10.7174738,43.1574888 10.7174738,42.2975841 C10.7174738,41.4279077 10.0142737,40.734121 9.154807,40.734121 Z" id="Shape"></path>
                    <polygon id="Shape" points="16.2747077 41.7601436 16.2747077 38.535501 14.6729742 38.535501 14.6729742 41.7601436"></polygon>
                    <path d="M15.4738409,40.3139403 C14.6729742,40.3139403 14.0283741,40.9588688 14.0283741,41.7601436 C14.0283741,42.5614185 14.6729742,43.206347 15.4738409,43.206347 C16.2747077,43.206347 16.9193077,42.5614185 16.9193077,41.7601436 C16.9193077,40.9588688 16.2747077,40.3139403 15.4738409,40.3139403 Z" id="Shape"></path>
                    <path d="M21.6756748,40.734121 C20.8064414,40.734121 20.113008,41.4376794 20.113008,42.2975841 C20.113008,43.1672604 20.8162081,43.8610471 21.6756748,43.8610471 C22.5449083,43.8610471 23.2383417,43.1574888 23.2383417,42.2975841 C23.2383417,41.4279077 22.5351416,40.734121 21.6756748,40.734121 Z" id="Shape"></path>
                </g>
            </g>
        </g>
    </g>
</svg>