<?xml version="1.0" encoding="UTF-8" standalone="no"?>
<svg width="48px" height="48px" viewBox="0 0 48 48" version="1.1" xmlns="http://www.w3.org/2000/svg" xmlns:xlink="http://www.w3.org/1999/xlink">
    <!-- Generator: Sketch 41.2 (35397) - http://www.bohemiancoding.com/sketch -->
    <title>icon-menu-white</title>
    <desc>Created with Sketch.</desc>
    <defs></defs>
    <g id="Symbols" stroke="none" stroke-width="1" fill="none" fill-rule="evenodd">
        <g id="hamburger">
            <g id="icon-menu">
                <rect id="Rectangle-2" x="0" y="0" width="48" height="48"></rect>
                <path d="M9.412,11 L11.071,11 L12.91,13.958 L14.749,11 L16.408,11 L16.408,17.996 L14.879,17.996 L14.879,13.429 L12.91,16.417 L12.87,16.417 L10.921,13.459 L10.921,17.997 L9.412,17.997 L9.412,11 L9.412,11 Z M17.992,11 L23.269,11 L23.269,12.369 L19.521,12.369 L19.521,13.788 L22.819,13.788 L22.819,15.157 L19.521,15.157 L19.521,16.626 L23.319,16.626 L23.319,17.995 L17.992,17.995 L17.992,11 L17.992,11 Z M24.592,11 L26.011,11 L29.289,15.308 L29.289,11 L30.808,11 L30.808,17.996 L29.5,17.996 L26.112,13.548 L26.112,17.996 L24.592,17.996 L24.592,11 Z M32.282,14.998 L32.282,11 L33.821,11 L33.821,14.958 C33.821,16.097 34.391,16.687 35.33,16.687 C36.269,16.687 36.839,16.117 36.839,15.008 L36.839,11 L38.378,11 L38.378,14.948 C38.378,17.067 37.189,18.106 35.31,18.106 C33.431,18.106 32.282,17.057 32.282,14.998 L32.282,14.998 Z M9,23.04 L39,23.04 L39,24.04 L9,24.04 L9,23.04 Z M9,29.04 L39,29.04 L39,30.04 L9,30.04 L9,29.04 Z M9,35.04 L39,35.04 L39,36.04 L9,36.04 L9,35.04 Z" id="Shape" fill="#FFFFFF"></path>
            </g>
        </g>
    </g>
</svg>