<?xml version="1.0" encoding="UTF-8" standalone="no"?>
<svg width="48px" height="48px" viewBox="0 0 48 48" version="1.1" xmlns="http://www.w3.org/2000/svg" xmlns:xlink="http://www.w3.org/1999/xlink">
    <!-- Generator: Sketch 41.2 (35397) - http://www.bohemiancoding.com/sketch -->
    <title>icon-location-pendant-active</title>
    <desc>Created with Sketch.</desc>
    <defs></defs>
    <g id="Symbols" stroke="none" stroke-width="1" fill="none" fill-rule="evenodd">
        <g id="icon-location-pendant/active">
            <g id="icon-location-pendant">
                <rect id="Button-Background" x="0" y="0" width="48" height="48"></rect>
                <g id="icon" transform="translate(24.000000, 25.500000) rotate(-270.000000) translate(-24.000000, -25.500000) translate(1.000000, 7.000000)" fill="#FFFFFF">
                    <path d="M19.499878,26.4966568 C19.499878,26.4959547 25.4938257,26.4980436 25.4938257,26.4980436 C25.5012799,26.4980436 25.499512,10.5013867 25.499512,10.5013867 C25.499512,10.5020887 19.5055642,10.4999999 19.5055642,10.4999999 C19.49811,10.4999999 19.499878,26.4966568 19.499878,26.4966568 Z M16.5,10.5013869 C16.5,8.8437667 17.8416228,7.5 19.497152,7.5 L25.502848,7.5 C27.1581293,7.5 28.5,8.84308127 28.5,10.5013869 L28.5,26.4986131 C28.5,28.1562333 27.1583772,29.5 25.502848,29.5 L19.497152,29.5 C17.8418707,29.5 16.5,28.1569187 16.5,26.4986131 L16.5,10.5013869 Z" id="Rectangle"></path>
                    <rect id="Rectangle-3" x="0.5" y="0.5" width="3" height="36" rx="1"></rect>
                    <rect id="Rectangle-3" x="3" y="17" width="14" height="3"></rect>
                    <g id="sound-waves" transform="translate(38.000000, 18.500000) rotate(-270.000000) translate(-38.000000, -18.500000) translate(26.000000, 11.000000)">
                        <path d="M12.1982101,0.14233463 C16.231751,0.208871595 19.9235019,1.76163424 22.9989105,5.0107393 C23.5143969,5.55564202 23.5774319,6.2511284 23.1663035,6.77782101 C22.7285603,7.3381323 22.0085603,7.34723735 21.4762646,6.77291829 C20.4340935,5.63529083 19.2154436,4.67299961 17.8671595,3.92303502 C13.1654475,1.33159533 7.40824903,2.11463035 3.40272374,5.8981323 C3.08614786,6.19719844 2.78568093,6.51797665 2.47610895,6.82754864 C1.98583658,7.31782101 1.3218677,7.32342412 0.896031128,6.84575875 C0.443579767,6.33867704 0.454785992,5.6088716 0.945058366,5.07937743 C3.51338521,2.3044358 6.60210117,0.736964981 10.1614786,0.261400778 C10.7722179,0.180155642 11.384358,0.169649805 12.1982101,0.14233463 Z" id="Shape"></path>
                        <path d="M12.0553307,5.19844358 C14.9829572,5.26848249 17.6080156,6.32607004 19.7876265,8.63035019 C20.1329183,8.99525292 20.2589883,9.42879377 20.137821,9.92256809 C20.0201556,10.3883268 19.7140856,10.6754864 19.2819455,10.7700389 C18.8252918,10.8694942 18.4828016,10.6341634 18.1676265,10.2958755 C17.0470039,9.08980545 15.7358755,8.21501946 14.2125292,7.79688716 C11.0313619,6.92420233 8.26272374,7.82700389 5.87789883,10.2601556 C5.5585214,10.5858366 5.23354086,10.8596887 4.77478599,10.779144 C4.34264591,10.7035019 4.02116732,10.4352529 3.88599222,9.97299611 C3.7459144,9.48272374 3.83766537,9.04287938 4.18225681,8.66957198 C5.57712457,7.13755161 7.39088628,6.0485153 9.39875486,5.53743191 C10.2490272,5.31330739 11.1196109,5.22155642 12.0553307,5.19844358 Z" id="Shape"></path>
                        <path d="M12.3354864,10.2783658 C13.7537743,10.3091829 15.3037354,10.9017121 16.5770428,12.2604669 C16.9462815,12.6360017 17.0457215,13.2003308 16.8270817,13.6794553 C16.616965,14.1641245 16.168716,14.4197665 15.663035,14.3497276 C15.3905837,14.3119066 15.1825681,14.1501167 14.9878599,13.9505058 C13.1367315,12.0454475 10.8667704,12.048249 9.00723735,13.9505058 C8.48684825,14.4842023 7.81657588,14.4982101 7.3711284,13.9862257 C6.92568093,13.4742412 6.97120623,12.7451362 7.48529183,12.1897276 C8.60381323,10.9850584 10.2490272,10.2902724 12.3354864,10.2783658 Z" id="Shape"></path>
                    </g>
                </g>
            </g>
        </g>
    </g>
</svg>