<?xml version="1.0" encoding="UTF-8" standalone="no"?>
<svg width="48px" height="48px" viewBox="0 0 48 48" version="1.1" xmlns="http://www.w3.org/2000/svg" xmlns:xlink="http://www.w3.org/1999/xlink">
    <!-- Generator: Sketch 41.2 (35397) - http://www.bohemiancoding.com/sketch -->
    <title>icon-volume-2-active</title>
    <desc>Created with Sketch.</desc>
    <defs></defs>
    <g id="Symbols" stroke="none" stroke-width="1" fill="none" fill-rule="evenodd">
        <g id="icon-volume-2/active">
            <g id="icon-volume-2">
                <rect id="Button-Background" x="0" y="0" width="48" height="48"></rect>
                <g id="icon" transform="translate(10.000000, 12.000000)" fill="#FFFFFF">
                    <path d="M15,1.00069463 C15,0.448026248 14.6471893,0.274408296 14.2170531,0.608958676 L6,7 L0.990777969,7.83487034 C0.443586406,7.92606893 0,8.45303631 0,8.99703014 L0,15.0029699 C0,15.5536144 0.45097518,16.0751625 0.990777969,16.1651297 L6,17 L14.2170531,23.3910413 C14.6494627,23.7273599 15,23.5525308 15,22.9993054 L15,1.00069463 Z" id="Shape"></path>
                    <g id="sound-waves" transform="translate(22.375000, 12.375000) rotate(-270.000000) translate(-22.375000, -12.375000) translate(13.375000, 7.375000)">
                        <path d="M9.05533074,0.19844358 C11.9829572,0.26848249 14.6080156,1.32607004 16.7876265,3.63035019 C17.1329183,3.99525292 17.2589883,4.42879377 17.137821,4.92256809 C17.0201556,5.38832685 16.7140856,5.67548638 16.2819455,5.77003891 C15.8252918,5.86949416 15.4828016,5.63416342 15.1676265,5.29587549 C14.0470039,4.08980545 12.7358755,3.21501946 11.2125292,2.79688716 C8.03136187,1.92420233 5.26272374,2.82700389 2.87789883,5.26015564 C2.5585214,5.58583658 2.23354086,5.85968872 1.77478599,5.77914397 C1.34264591,5.70350195 1.02116732,5.43525292 0.885992218,4.97299611 C0.745914397,4.48272374 0.83766537,4.04287938 1.18225681,3.66957198 C2.57712457,2.13755161 4.39088628,1.0485153 6.39875486,0.537431907 C7.24902724,0.313307393 8.11961089,0.22155642 9.05533074,0.19844358 Z" id="Shape"></path>
                        <path d="M9.33548638,5.27836576 C10.7537743,5.30918288 12.3037354,5.90171206 13.5770428,7.26046693 C13.9462815,7.63600174 14.0457215,8.2003308 13.8270817,8.67945525 C13.616965,9.16412451 13.168716,9.41976654 12.663035,9.34972763 C12.3905837,9.31190661 12.1825681,9.15011673 11.9878599,8.95050584 C10.1367315,7.04544747 7.86677043,7.04824903 6.00723735,8.95050584 C5.48684825,9.48420233 4.81657588,9.49821012 4.3711284,8.98622568 C3.92568093,8.47424125 3.97120623,7.74513619 4.48529183,7.18972763 C5.60381323,5.98505837 7.24902724,5.29027237 9.33548638,5.27836576 Z" id="Shape"></path>
                    </g>
                </g>
            </g>
        </g>
    </g>
</svg>