<?xml version="1.0" encoding="UTF-8" standalone="no"?>
<svg width="48px" height="48px" viewBox="0 0 48 48" version="1.1" xmlns="http://www.w3.org/2000/svg" xmlns:xlink="http://www.w3.org/1999/xlink">
    <!-- Generator: Sketch 41.2 (35397) - http://www.bohemiancoding.com/sketch -->
    <title>icon-location-flush-active</title>
    <desc>Created with Sketch.</desc>
    <defs></defs>
    <g id="Symbols" stroke="none" stroke-width="1" fill="none" fill-rule="evenodd">
        <g id="icon-location-flush/active">
            <g id="icon-location-flush">
                <rect id="Button-Background" x="0" y="0" width="48" height="48"></rect>
                <g id="icon" transform="translate(24.000000, 25.500000) rotate(-270.000000) translate(-24.000000, -25.500000) translate(9.500000, 3.500000)" fill="#FFFFFF">
                    <rect id="Rectangle-3" x="-3.55271368e-15" y="0" width="3" height="44" rx="1"></rect>
                    <rect id="Rectangle-3" x="3" y="10" width="3" height="24" rx="1"></rect>
                    <g id="sound-waves" transform="translate(19.000000, 22.000000) rotate(-270.000000) translate(-19.000000, -22.000000) translate(4.000000, 12.000000)">
                        <path d="M15.5505058,0.0764202335 C20.4987549,0.18077821 25.2740078,2.20770428 29.2480156,6.42684825 C29.5982101,6.80225681 29.7571984,7.23229572 29.6325292,7.74708171 C29.5190661,8.21354086 29.2122957,8.50560311 28.7836576,8.6029572 C28.3298054,8.7059144 27.9817121,8.48178988 27.666537,8.13859922 C25.9106615,6.22863813 23.9131518,4.68918288 21.5983658,3.75346304 C14.4950195,0.881867704 8.14459144,2.36809339 2.53867704,7.91727626 C2.44132296,8.01322957 2.35167315,8.11828794 2.2585214,8.21634241 C1.73252918,8.75564202 1.07136187,8.7633463 0.625214008,8.2366537 C0.195875486,7.73027237 0.235097276,7.00046693 0.724669261,6.46747082 C2.11848902,4.93480432 3.74427147,3.63044419 5.54264591,2.60202335 C8.51159533,0.915486381 11.6759533,0.0939299611 15.5505058,0.0764202335 Z" id="Shape"></path>
                        <path d="M15.1982101,5.14233463 C19.231751,5.2088716 22.9235019,6.76163424 25.9989105,10.0107393 C26.5143969,10.555642 26.5774319,11.2511284 26.1663035,11.777821 C25.7285603,12.3381323 25.0085603,12.3472374 24.4762646,11.7729183 C23.4340935,10.6352908 22.2154436,9.67299961 20.8671595,8.92303502 C16.1654475,6.33159533 10.408249,7.11463035 6.40272374,10.8981323 C6.08614786,11.1971984 5.78568093,11.5179767 5.47610895,11.8275486 C4.98583658,12.317821 4.3218677,12.3234241 3.89603113,11.8457588 C3.44357977,11.338677 3.45478599,10.6088716 3.94505837,10.0793774 C6.51338521,7.3044358 9.60210117,5.73696498 13.1614786,5.26140078 C13.7722179,5.18015564 14.384358,5.16964981 15.1982101,5.14233463 Z" id="Shape"></path>
                        <path d="M15.0553307,10.1984436 C17.9829572,10.2684825 20.6080156,11.32607 22.7876265,13.6303502 C23.1329183,13.9952529 23.2589883,14.4287938 23.137821,14.9225681 C23.0201556,15.3883268 22.7140856,15.6754864 22.2819455,15.7700389 C21.8252918,15.8694942 21.4828016,15.6341634 21.1676265,15.2958755 C20.0470039,14.0898054 18.7358755,13.2150195 17.2125292,12.7968872 C14.0313619,11.9242023 11.2627237,12.8270039 8.87789883,15.2601556 C8.5585214,15.5858366 8.23354086,15.8596887 7.77478599,15.779144 C7.34264591,15.7035019 7.02116732,15.4352529 6.88599222,14.9729961 C6.7459144,14.4827237 6.83766537,14.0428794 7.18225681,13.669572 C8.57712457,12.1375516 10.3908863,11.0485153 12.3987549,10.5374319 C13.2490272,10.3133074 14.1196109,10.2215564 15.0553307,10.1984436 Z" id="Shape"></path>
                        <path d="M15.3354864,15.2783658 C16.7537743,15.3091829 18.3037354,15.9017121 19.5770428,17.2604669 C19.9462815,17.6360017 20.0457215,18.2003308 19.8270817,18.6794553 C19.616965,19.1641245 19.168716,19.4197665 18.663035,19.3497276 C18.3905837,19.3119066 18.1825681,19.1501167 17.9878599,18.9505058 C16.1367315,17.0454475 13.8667704,17.048249 12.0072374,18.9505058 C11.4868482,19.4842023 10.8165759,19.4982101 10.3711284,18.9862257 C9.92568093,18.4742412 9.97120623,17.7451362 10.4852918,17.1897276 C11.6038132,15.9850584 13.2490272,15.2902724 15.3354864,15.2783658 Z" id="Shape"></path>
                    </g>
                </g>
            </g>
        </g>
    </g>
</svg>