<?xml version="1.0" encoding="UTF-8" standalone="no"?>
<svg width="48px" height="48px" viewBox="0 0 48 48" version="1.1" xmlns="http://www.w3.org/2000/svg" xmlns:xlink="http://www.w3.org/1999/xlink">
    <!-- Generator: Sketch 41.2 (35397) - http://www.bohemiancoding.com/sketch -->
    <title>icon-coverage-minimum-active</title>
    <desc>Created with Sketch.</desc>
    <defs></defs>
    <g id="Symbols" stroke="none" stroke-width="1" fill="none" fill-rule="evenodd">
        <g id="icon-coverage-minimum/active">
            <g id="icon-coverage-minimum">
                <rect id="Button-Background" x="0" y="0" width="48" height="48"></rect>
                <path d="M36,33 C40.9705627,33 45,28.9705627 45,24 C45,19.0294373 40.9705627,15 36,15 C31.0294373,15 27,19.0294373 27,24 C27,28.9705627 31.0294373,33 36,33 Z M36,36 C29.372583,36 24,30.627417 24,24 C24,17.372583 29.372583,12 36,12 C42.627417,12 48,17.372583 48,24 C48,30.627417 42.627417,36 36,36 Z" id="Oval" fill="#FFFFFF"></path>
                <path d="M12,33 C16.9705627,33 21,28.9705627 21,24 C21,19.0294373 16.9705627,15 12,15 C7.02943725,15 3,19.0294373 3,24 C3,28.9705627 7.02943725,33 12,33 Z M12,36 C5.372583,36 0,30.627417 0,24 C0,17.372583 5.372583,12 12,12 C18.627417,12 24,17.372583 24,24 C24,30.627417 18.627417,36 12,36 Z" id="Oval" fill="#FFFFFF"></path>
            </g>
        </g>
    </g>
</svg>