<?xml version="1.0" encoding="UTF-8" standalone="no"?>
<svg width="48px" height="48px" viewBox="0 0 48 48" version="1.1" xmlns="http://www.w3.org/2000/svg" xmlns:xlink="http://www.w3.org/1999/xlink">
    <!-- Generator: Sketch 41.2 (35397) - http://www.bohemiancoding.com/sketch -->
    <title>icon-volume-1-active</title>
    <desc>Created with Sketch.</desc>
    <defs></defs>
    <g id="Symbols" stroke="none" stroke-width="1" fill="none" fill-rule="evenodd">
        <g id="icon-volume-1/active">
            <g id="icon-volume-1">
                <rect id="Button-Background" x="0" y="0" width="48" height="48"></rect>
                <g id="icon" transform="translate(13.000000, 12.000000)" fill="#FFFFFF">
                    <path d="M15,1.00069463 C15,0.448026248 14.6471893,0.274408296 14.2170531,0.608958676 L6,7 L0.990777969,7.83487034 C0.443586406,7.92606893 0,8.45303631 0,8.99703014 L0,15.0029699 C0,15.5536144 0.45097518,16.0751625 0.990777969,16.1651297 L6,17 L14.2170531,23.3910413 C14.6494627,23.7273599 15,23.5525308 15,22.9993054 L15,1.00069463 Z" id="Shape"></path>
                    <g id="sound-waves" transform="translate(19.875000, 12.375000) rotate(-270.000000) translate(-19.875000, -12.375000) translate(14.875000, 9.875000)">
                        <path d="M5.33548638,0.278365759 C6.75377432,0.309182879 8.30373541,0.901712062 9.5770428,2.26046693 C9.94628147,2.63600174 10.0457215,3.2003308 9.82708171,3.67945525 C9.61696498,4.16412451 9.16871595,4.41976654 8.66303502,4.34972763 C8.39058366,4.31190661 8.18256809,4.15011673 7.98785992,3.95050584 C6.13673152,2.04544747 3.86677043,2.04824903 2.00723735,3.95050584 C1.48684825,4.48420233 0.816575875,4.49821012 0.371128405,3.98622568 C-0.0743190661,3.47424125 -0.0287937743,2.74513619 0.485291829,2.18972763 C1.60381323,0.985058366 3.24902724,0.290272374 5.33548638,0.278365759 Z" id="Shape"></path>
                    </g>
                </g>
            </g>
        </g>
    </g>
</svg>