<?xml version="1.0" encoding="UTF-8" standalone="no"?>
<svg width="48px" height="48px" viewBox="0 0 48 48" version="1.1" xmlns="http://www.w3.org/2000/svg" xmlns:xlink="http://www.w3.org/1999/xlink">
    <!-- Generator: Sketch 41.2 (35397) - http://www.bohemiancoding.com/sketch -->
    <title>icon-coverage-premium</title>
    <desc>Created with Sketch.</desc>
    <defs></defs>
    <g id="Symbols" stroke="none" stroke-width="1" fill="none" fill-rule="evenodd">
        <g id="icon-coverage-premium">
            <g>
                <rect id="Button-Background" x="0" y="0" width="48" height="48"></rect>
                <path d="M18,39 C26.2842712,39 33,32.2842712 33,24 C33,15.7157288 26.2842712,9 18,9 C9.71572875,9 3,15.7157288 3,24 C3,32.2842712 9.71572875,39 18,39 Z M18,42 C8.0588745,42 0,33.9411255 0,24 C0,14.0588745 8.0588745,6 18,6 C27.9411255,6 36,14.0588745 36,24 C36,33.9411255 27.9411255,42 18,42 Z" id="Oval" fill="#7F7F7F"></path>
                <path d="M30,39 C38.2842712,39 45,32.2842712 45,24 C45,15.7157288 38.2842712,9 30,9 C21.7157288,9 15,15.7157288 15,24 C15,32.2842712 21.7157288,39 30,39 Z M30,42 C20.0588745,42 12,33.9411255 12,24 C12,14.0588745 20.0588745,6 30,6 C39.9411255,6 48,14.0588745 48,24 C48,33.9411255 39.9411255,42 30,42 Z" id="Oval" fill="#7F7F7F"></path>
            </g>
        </g>
    </g>
</svg>