<?xml version="1.0" encoding="UTF-8" standalone="no"?>
<svg width="48px" height="48px" viewBox="0 0 48 48" version="1.1" xmlns="http://www.w3.org/2000/svg" xmlns:xlink="http://www.w3.org/1999/xlink">
    <!-- Generator: Sketch 41.2 (35397) - http://www.bohemiancoding.com/sketch -->
    <title>icon-volume-5</title>
    <desc>Created with Sketch.</desc>
    <defs></defs>
    <g id="Symbols" stroke="none" stroke-width="1" fill="none" fill-rule="evenodd">
        <g id="icon-volume-5">
            <g>
                <rect id="Button-Background" x="0" y="0" width="48" height="48"></rect>
                <g id="icon" transform="translate(3.000000, 6.000000)" fill="#7F7F7F">
                    <path d="M15,7.00069463 C15,6.44802625 14.6471893,6.2744083 14.2170531,6.60895868 L6,13 L0.990777969,13.8348703 C0.443586406,13.9260689 0,14.4530363 0,14.9970301 L0,21.0029699 C0,21.5536144 0.45097518,22.0751625 0.990777969,22.1651297 L6,23 L14.2170531,29.3910413 C14.6494627,29.7273599 15,29.5525308 15,28.9993054 L15,7.00069463 Z" id="Shape"></path>
                    <g id="sound-waves" transform="translate(29.875000, 18.375000) rotate(-270.000000) translate(-29.875000, -18.375000) translate(11.875000, 5.875000)">
                        <path d="M18.0973541,0.00910505837 C23.848249,0.0854474708 29.0899611,2.04023346 33.6740078,6.0555642 C34.3176654,6.62007782 34.9221012,7.23431907 35.5118288,7.86607004 C36.0280156,8.41937743 36.0721401,9.14428016 35.6175875,9.66466926 C35.163035,10.1850584 34.4864591,10.168249 33.982179,9.62124514 C32.3824903,7.8877821 30.6140078,6.40575875 28.632607,5.24101167 C24.4379767,2.77564202 19.9792996,1.82871595 15.2551751,2.47237354 C10.155642,3.1692607 5.79922179,5.5863035 2.11797665,9.51968872 C1.87984436,9.77392996 1.63750973,10.0015564 1.28451362,10.0281712 C0.794241245,10.0652918 0.374007782,9.80264591 0.172996109,9.3277821 C-0.0284524932,8.85768261 0.0702306662,8.31272002 0.423735409,7.94311284 C1.32035384,6.95264311 2.29542383,6.03612885 3.33945525,5.20249027 C6.70132296,2.53330739 10.4456031,0.916108949 14.5393774,0.274552529 C15.688716,0.0924513619 16.8506615,0.0273151751 18.0973541,0.00910505837 Z" id="Shape"></path>
                        <path d="M18.5505058,5.07642023 C23.4987549,5.18077821 28.2740078,7.20770428 32.2480156,11.4268482 C32.5982101,11.8022568 32.7571984,12.2322957 32.6325292,12.7470817 C32.5190661,13.2135409 32.2122957,13.5056031 31.7836576,13.6029572 C31.3298054,13.7059144 30.9817121,13.4817899 30.666537,13.1385992 C28.9106615,11.2286381 26.9131518,9.68918288 24.5983658,8.75346304 C17.4950195,5.8818677 11.1445914,7.36809339 5.53867704,12.9172763 C5.44132296,13.0132296 5.35167315,13.1182879 5.2585214,13.2163424 C4.73252918,13.755642 4.07136187,13.7633463 3.62521401,13.2366537 C3.19587549,12.7302724 3.23509728,12.0004669 3.72466926,11.4674708 C5.11848902,9.93480432 6.74427147,8.63044419 8.54264591,7.60202335 C11.5115953,5.91548638 14.6759533,5.09392996 18.5505058,5.07642023 Z" id="Shape"></path>
                        <path d="M18.1982101,10.1423346 C22.231751,10.2088716 25.9235019,11.7616342 28.9989105,15.0107393 C29.5143969,15.555642 29.5774319,16.2511284 29.1663035,16.777821 C28.7285603,17.3381323 28.0085603,17.3472374 27.4762646,16.7729183 C26.4340935,15.6352908 25.2154436,14.6729996 23.8671595,13.923035 C19.1654475,11.3315953 13.408249,12.1146304 9.40272374,15.8981323 C9.08614786,16.1971984 8.78568093,16.5179767 8.47610895,16.8275486 C7.98583658,17.317821 7.3218677,17.3234241 6.89603113,16.8457588 C6.44357977,16.338677 6.45478599,15.6088716 6.94505837,15.0793774 C9.51338521,12.3044358 12.6021012,10.736965 16.1614786,10.2614008 C16.7722179,10.1801556 17.384358,10.1696498 18.1982101,10.1423346 Z" id="Shape"></path>
                        <path d="M18.0553307,15.1984436 C20.9829572,15.2684825 23.6080156,16.32607 25.7876265,18.6303502 C26.1329183,18.9952529 26.2589883,19.4287938 26.137821,19.9225681 C26.0201556,20.3883268 25.7140856,20.6754864 25.2819455,20.7700389 C24.8252918,20.8694942 24.4828016,20.6341634 24.1676265,20.2958755 C23.0470039,19.0898054 21.7358755,18.2150195 20.2125292,17.7968872 C17.0313619,16.9242023 14.2627237,17.8270039 11.8778988,20.2601556 C11.5585214,20.5858366 11.2335409,20.8596887 10.774786,20.779144 C10.3426459,20.7035019 10.0211673,20.4352529 9.88599222,19.9729961 C9.7459144,19.4827237 9.83766537,19.0428794 10.1822568,18.669572 C11.5771246,17.1375516 13.3908863,16.0485153 15.3987549,15.5374319 C16.2490272,15.3133074 17.1196109,15.2215564 18.0553307,15.1984436 Z" id="Shape"></path>
                        <path d="M18.3354864,20.2783658 C19.7537743,20.3091829 21.3037354,20.9017121 22.5770428,22.2604669 C22.9462815,22.6360017 23.0457215,23.2003308 22.8270817,23.6794553 C22.616965,24.1641245 22.168716,24.4197665 21.663035,24.3497276 C21.3905837,24.3119066 21.1825681,24.1501167 20.9878599,23.9505058 C19.1367315,22.0454475 16.8667704,22.048249 15.0072374,23.9505058 C14.4868482,24.4842023 13.8165759,24.4982101 13.3711284,23.9862257 C12.9256809,23.4742412 12.9712062,22.7451362 13.4852918,22.1897276 C14.6038132,20.9850584 16.2490272,20.2902724 18.3354864,20.2783658 Z" id="Shape"></path>
                    </g>
                </g>
            </g>
        </g>
    </g>
</svg>